<svg width="229" height="31" viewBox="0 0 229 31" fill="none" xmlns="http://www.w3.org/2000/svg">
<path d="M91.7797 11.8198L94.5472 17.5462H93.5504L92.9595 16.2865H90.5915L90.0006 17.5462H89.0122L91.7797 11.8198ZM90.9911 15.4411H92.562L91.7797 13.7651L90.9911 15.4411Z" fill="black"/>
<path d="M95.0581 18.6166L95.5207 17.8511C95.8551 18.0992 96.2715 18.2591 96.772 18.2591C97.3713 18.2591 97.9517 18.0677 97.9517 17.4221C97.9517 17.3106 97.9286 17.1424 97.8634 17.0162C97.5921 17.2391 97.2094 17.3905 96.7699 17.3905C95.5901 17.3905 94.7847 16.5683 94.7847 15.4432C94.7847 14.3181 95.5901 13.4958 96.7699 13.4958C97.1926 13.4958 97.5522 13.6325 97.8319 13.8555V13.561H98.7088V16.7428C98.8203 17.0225 98.8686 17.3022 98.8686 17.5335C98.8686 18.6755 97.8003 19.096 96.7699 19.096C96.2189 19.096 95.5733 18.953 95.0559 18.6166H95.0581ZM97.834 16.0152V14.867C97.6195 14.5389 97.2199 14.3328 96.7804 14.3328C96.1663 14.3328 95.6868 14.7871 95.6868 15.4411C95.6868 16.0951 96.1663 16.5494 96.7804 16.5494C97.2199 16.5494 97.6174 16.3433 97.834 16.0152Z" fill="black"/>
<path d="M99.5962 15.5526C99.5962 14.3875 100.473 13.4938 101.638 13.4938C102.803 13.4938 103.489 14.2761 103.546 15.5526V15.7923H100.507C100.595 16.358 101.058 16.7408 101.655 16.7408C102.134 16.7408 102.484 16.5178 102.692 16.2865L103.283 16.9174C102.94 17.3149 102.357 17.6114 101.655 17.6114C100.475 17.6114 99.5962 16.7176 99.5962 15.5526ZM100.53 15.1131H102.58C102.477 14.5705 102.101 14.2992 101.575 14.2992C101.104 14.2992 100.673 14.6104 100.53 15.1131Z" fill="black"/>
<path d="M104.415 13.559H105.291V13.9333C105.571 13.6305 105.994 13.4938 106.408 13.4938C107.397 13.4938 108.027 14.1793 108.027 15.2077V17.5441H107.151V15.2224C107.151 14.7913 106.831 14.3287 106.24 14.3287C105.794 14.3287 105.451 14.56 105.291 15.031V17.5441H104.415V13.5548V13.559Z" fill="black"/>
<path d="M108.481 13.559H109.255V12.7935L110.132 12.3624V13.559H111.346L111.154 14.3413H110.132V16.152C110.132 16.5578 110.244 16.7429 110.698 16.7429H111.249V17.5483H110.475C109.71 17.5483 109.255 17.0941 109.255 16.3349V14.3413H108.673L108.481 13.559Z" fill="black"/>
<path d="M111.808 15.5526C111.808 14.3875 112.685 13.4938 113.85 13.4938C115.015 13.4938 115.701 14.2761 115.756 15.5526V15.7923H112.717C112.805 16.358 113.268 16.7408 113.865 16.7408C114.344 16.7408 114.694 16.5178 114.902 16.2865L115.493 16.9174C115.15 17.3149 114.567 17.6114 113.865 17.6114C112.685 17.6114 111.806 16.7176 111.806 15.5526H111.808ZM112.742 15.1131H114.792C114.689 14.5705 114.313 14.2992 113.787 14.2992C113.316 14.2992 112.885 14.6104 112.742 15.1131Z" fill="black"/>
<path d="M121.341 17.2602C121.061 17.4831 120.695 17.6114 120.273 17.6114C119.093 17.6114 118.222 16.7177 118.222 15.5526C118.222 14.3876 119.091 13.4938 120.273 13.4938C120.695 13.4938 121.063 13.6305 121.341 13.8534V11.8829H122.218V17.5462H121.341V17.2581V17.2602ZM121.341 16.2319V14.8755C121.124 14.5474 120.718 14.3329 120.279 14.3329C119.6 14.3329 119.122 14.8586 119.122 15.5526C119.122 16.2466 119.602 16.7723 120.279 16.7723C120.718 16.7723 121.124 16.5578 121.341 16.2298V16.2319Z" fill="black"/>
<path d="M123.095 15.5526C123.095 14.3875 123.972 13.4938 125.137 13.4938C126.302 13.4938 126.987 14.2761 127.044 15.5526V15.7923H124.005C124.094 16.358 124.556 16.7408 125.154 16.7408C125.633 16.7408 125.982 16.5178 126.19 16.2865L126.781 16.9174C126.438 17.3149 125.856 17.6114 125.154 17.6114C123.974 17.6114 123.095 16.7176 123.095 15.5526ZM124.028 15.1131H126.079C125.976 14.5705 125.599 14.2992 125.074 14.2992C124.603 14.2992 124.171 14.6104 124.028 15.1131Z" fill="black"/>
<path d="M5.48006 4.53717C6.04996 4.18387 6.41798 3.52564 6.41798 2.79591C6.41798 1.18714 5.41276 0.299691 3.58529 0.299691H1.38348C1.03649 0.299691 0.752592 0.583592 0.752592 0.930581V8.77254C0.752592 9.11953 1.03649 9.40343 1.38348 9.40343H3.97433C5.73031 9.40343 6.81965 8.37718 6.81965 6.72635C6.81965 5.6938 6.33807 4.9178 5.48006 4.53717ZM2.07746 4.10816V1.46053H3.64837C4.69986 1.46053 5.23401 1.90636 5.23401 2.7854C5.23401 3.66444 4.65569 4.11026 3.64837 4.11026H2.07746V4.10816ZM5.61465 6.74949C5.61465 7.72947 5.06577 8.2468 4.02901 8.2468H2.07956V5.26689H4.02901C5.03843 5.26689 5.61465 5.80736 5.61465 6.74949ZM11.7385 0.503679C11.6333 0.247117 11.402 0.0872919 11.1349 0.0872919C10.9457 0.0872919 10.6891 0.158793 10.5419 0.505782L7.36221 8.54962C7.32225 8.63164 7.30543 8.75151 7.30543 8.82721C7.30543 9.17 7.59354 9.4581 7.93632 9.4581C8.21181 9.4581 8.43683 9.29618 8.53987 9.027L9.44835 6.75579H12.8362L13.73 9.03751C13.8309 9.30038 14.0559 9.4581 14.3335 9.4581C14.6952 9.4581 14.977 9.18051 14.977 8.82721C14.977 8.77254 14.9623 8.65687 14.9245 8.56224L11.7364 0.503679H11.7385ZM12.4156 5.59706H9.86684L11.1349 2.30592L12.4156 5.59706ZM22.6024 0.76655V8.87979C22.6024 9.20154 22.3416 9.50647 22.022 9.5296C21.7864 9.54643 21.5909 9.46021 21.4458 9.27304L17.1389 2.77698V8.86296C17.1389 9.14897 16.9475 9.41604 16.6657 9.46652C16.2998 9.53171 15.9823 9.24991 15.9823 8.89661V0.72449C15.9823 0.568871 16.058 0.415355 16.1947 0.337545C16.201 0.333339 16.2073 0.331236 16.2136 0.32703C16.2893 0.263941 16.3797 0.219779 16.4828 0.200852C16.7646 0.152484 16.9812 0.303897 17.0842 0.446899L21.2796 6.75369V0.747623C21.2796 0.503679 21.4163 0.272353 21.6371 0.17141C22.125 -0.0536068 22.6045 0.299691 22.6045 0.762343L22.6024 0.76655ZM24.9115 4.81896C24.9115 7.2563 25.8557 8.3919 27.8829 8.3919C28.7788 8.3919 29.5695 8.02178 30.0027 7.4014C30.1121 7.24368 30.2971 7.15115 30.4948 7.15115C30.8334 7.15115 31.0984 7.41613 31.0984 7.75681C31.0984 7.8914 31.0668 7.99234 30.989 8.108C30.375 8.99966 29.1573 9.57377 27.8829 9.57377C25.0965 9.57377 23.6223 7.92925 23.6223 4.81896C23.6223 1.70868 25.1344 0.0494385 27.8829 0.0494385C29.1552 0.0494385 30.3098 0.59621 30.9722 1.511C31.0563 1.62877 31.0984 1.75705 31.0984 1.89584C31.0984 2.23442 30.8334 2.49939 30.4948 2.49939C30.2993 2.49939 30.1352 2.41738 30.009 2.25755C29.5569 1.63297 28.7241 1.23131 27.8829 1.23131C25.9104 1.23131 24.9115 2.43841 24.9115 4.81686V4.81896ZM36.1224 0.0494385C33.3759 0.0494385 31.8618 1.74443 31.8618 4.81896C31.8618 7.8935 33.3738 9.57377 36.1224 9.57377C38.8709 9.57377 40.383 7.88509 40.383 4.81896C40.383 1.75284 38.8709 0.0494385 36.1224 0.0494385ZM39.0938 4.81896C39.0938 7.189 38.0949 8.3919 36.1224 8.3919C34.1498 8.3919 33.1509 7.189 33.1509 4.81896C33.1509 2.44892 34.1498 1.23341 36.1224 1.23341C38.0949 1.23341 39.0938 2.44051 39.0938 4.81896ZM71.0589 11.9417C75.7675 11.9417 79.4561 15.4768 79.4561 19.9876V30.5635H79.4434C79.4203 30.7317 79.2815 30.8642 79.107 30.8642H75.1345C74.9599 30.8642 74.8211 30.7317 74.798 30.5635H74.7896V30.5235C74.7896 30.5235 74.7896 30.5193 74.7896 30.5172V29.9221V19.9876H74.7791C74.7791 18.36 73.4437 16.6334 70.9685 16.6082C68.4954 16.6334 67.1579 18.36 67.1579 19.9876H67.1453V30.5193C67.1453 30.5193 67.1453 30.5235 67.1453 30.5256V30.5656H67.139C67.1159 30.7338 66.9771 30.8663 66.8025 30.8663H62.83C62.6555 30.8663 62.5167 30.7338 62.4935 30.5656H62.4809V19.9898C62.4809 15.4768 66.1695 11.9438 70.8781 11.9438H70.9159C70.9327 11.9438 70.9496 11.9438 70.9685 11.9438C70.9853 11.9438 71.0021 11.9438 71.0211 11.9438H71.0589M30.009 30.2501H29.9964C29.9733 30.4184 29.8345 30.5508 29.66 30.5508H25.6874C25.5129 30.5508 25.3741 30.4184 25.3531 30.2501H25.3447V30.2102C25.3447 30.2102 25.3447 30.2102 25.3447 30.206V29.6108V19.994C25.3447 17.7732 23.4688 16.6124 21.6119 16.6124H21.574C19.0652 16.6124 17.713 18.3557 17.713 19.994V22.8182C17.713 27.3312 13.9676 30.8642 9.18548 30.8642H9.14763C4.43909 30.8642 0.750488 27.3291 0.750488 22.8182V12.5621H0.752592V12.5137C0.752592 12.3223 0.906108 12.1688 1.09748 12.1688H5.06367C5.25294 12.1688 5.40856 12.3223 5.40856 12.5137V12.5621H5.41487V22.8182C5.41487 25.039 7.29281 26.2019 9.14763 26.2019H9.18548C11.6943 26.2019 13.0465 24.4586 13.0465 22.8182V19.994C13.0465 15.481 16.7919 11.948 21.574 11.948H21.6119C26.3204 11.948 30.009 15.4831 30.009 19.994V30.2501ZM50.5887 11.9627C45.5941 11.9627 41.5333 16.1981 41.5333 21.405C41.5333 26.612 45.5941 30.8495 50.5887 30.8495C55.5832 30.8495 59.644 26.6141 59.644 21.405C59.644 16.196 55.5811 11.9627 50.5887 11.9627ZM50.5887 26.0926C48.1576 26.0926 46.1808 23.9917 46.1808 21.405C46.1808 18.8184 48.1576 16.7196 50.5887 16.7196C53.0197 16.7196 54.9965 18.8205 54.9965 21.405C54.9965 23.9896 53.0197 26.0926 50.5887 26.0926ZM38.1854 12.0321C38.3852 12.0321 38.5471 12.1941 38.5471 12.3959V30.5067C38.5471 30.7065 38.3831 30.8684 38.1854 30.8684H34.0152C33.8154 30.8684 33.6514 30.7065 33.6514 30.5067V12.3959C33.6514 12.1941 33.8133 12.0321 34.0152 12.0321H38.1854Z" fill="#00A3E1"/>
<path d="M147.403 28.3302C149.365 31.7202 152.576 31.7202 154.538 28.3302L155.636 26.4334L145.813 9.42249H136.491L147.405 28.3281L147.403 28.3302Z" fill="black"/>
<path d="M168.09 21.0624C167.373 22.2989 165.686 22.2968 164.969 21.0603L158.24 9.42249H148.919L159.844 28.3345C161.806 31.7244 165.009 31.7244 166.971 28.3345L174.283 15.6683L170.685 9.42249H161.369L168.088 21.0624H168.09Z" fill="black"/>
<path d="M180.6 19.4242H182.512L182.529 19.3653C183.708 14.9911 184.192 13.1216 184.388 11.9649C184.579 13.1195 185.038 15.0142 186.165 19.3653L186.179 19.4263H188.133L190.852 9.42456H189.073L189.058 9.48555C187.877 14.0258 187.426 15.8638 187.222 17.0352C186.985 15.7755 186.474 13.6999 185.368 9.48555L185.351 9.42456H183.492L183.477 9.48555C182.327 13.9817 181.845 15.9059 181.639 17.1572C181.414 15.9395 180.907 13.9207 179.759 9.48555L179.744 9.42456H177.898L180.588 19.3653L180.604 19.4242H180.6Z" fill="black"/>
<path d="M193.874 19.563C195.319 19.563 196.686 18.7744 197.233 17.603L195.914 16.9322H195.887L195.862 16.9805C195.702 17.3128 195.117 18.0846 193.889 18.0846C192.774 18.0846 191.925 17.3759 191.794 16.3475H197.475V16.2697C197.51 14.8692 197.13 13.7188 196.375 12.9449C195.721 12.2741 194.819 11.9187 193.765 11.9187C192.711 11.9187 191.778 12.3099 191.098 13.0207C190.425 13.7251 190.053 14.6946 190.053 15.7545C190.053 17.9963 191.624 19.563 193.872 19.563H193.874ZM193.765 13.3676C194.819 13.3676 195.618 14.0406 195.698 14.9806H191.792C191.912 14.0406 192.726 13.3676 193.763 13.3676H193.765Z" fill="black"/>
<path d="M201.066 19.5631C202.925 19.5631 204.082 18.6987 204.082 17.3066C204.082 15.6557 202.583 15.2667 201.375 14.9534C200.543 14.7368 199.823 14.5496 199.823 14.0217C199.823 13.5969 200.273 13.2983 200.917 13.2983C201.621 13.2983 202.107 13.6705 202.187 14.2678L202.238 14.5706L202.271 14.5643L203.75 14.2909C203.75 12.9051 202.524 11.9314 200.932 11.9314C199.34 11.9314 198.149 12.8357 198.149 14.1332C198.149 15.6999 199.605 16.089 200.774 16.4023C201.621 16.6294 202.351 16.825 202.351 17.376C202.351 17.8554 201.88 18.1541 201.121 18.1541C200.21 18.1541 199.596 17.7314 199.523 17.0479L199.51 16.9365L197.943 17.233C197.943 18.7513 199.643 19.5631 201.066 19.5631Z" fill="black"/>
<path d="M205.405 18.0636C205.405 18.8921 205.928 19.563 206.797 19.563C207.873 19.563 208.189 19.4242 208.189 19.4242V18.0299C208.189 18.0299 207.867 18.0825 207.474 18.0825C207.219 18.0825 207.041 17.929 207.041 17.6976V13.4791H208.176L208.159 12.0701H207.039V9.97766L205.402 10.3877V12.0701H204.549L204.544 13.4791H205.402V18.0636H205.405Z" fill="black"/>
<path d="M218.231 12.9996V12.0701H216.79V19.4241H218.521L218.506 14.9259C218.529 14.4737 218.681 14.1268 218.958 13.8954C219.322 13.5926 219.888 13.4896 220.641 13.5884L220.731 13.601L220.746 12.0659L220.674 12.0553C219.637 11.9144 218.697 12.2299 218.228 12.9996H218.231Z" fill="black"/>
<path d="M225.442 11.9166C224.401 11.9166 223.425 12.3309 222.943 13.1195V12.0701H221.444V19.4242H223.189V15.4769C223.189 14.2089 223.854 13.4518 224.964 13.4518C225.723 13.4518 226.63 13.7841 226.63 15.3655V19.4242H228.375V15.13C228.375 12.762 226.861 11.9166 225.442 11.9166Z" fill="black"/>
<path d="M184.962 26.6015C184.962 28.3007 184.156 29.2366 182.695 29.2366C181.233 29.2366 180.443 28.3007 180.443 26.6015V20.7427H178.685V26.5616C178.685 29.2681 180.184 30.8832 182.695 30.8832C185.206 30.8832 186.705 29.2681 186.705 26.5616V20.7427H184.96V26.6015H184.962Z" fill="black"/>
<path d="M191.744 23.2347C190.703 23.2347 189.727 23.649 189.246 24.4376V23.3883H187.746V30.7423H189.492V26.7951C189.492 25.527 190.156 24.7699 191.266 24.7699C192.026 24.7699 192.932 25.1022 192.932 26.6836V30.7423H194.677V26.4481C194.677 24.0801 193.163 23.2347 191.744 23.2347Z" fill="black"/>
<path d="M197.489 23.3883H195.758V30.7424H197.489V23.3883Z" fill="black"/>
<path d="M196.631 20.6776C196.065 20.6776 195.622 21.1129 195.622 21.6702C195.622 22.2275 196.074 22.6481 196.631 22.6481C197.188 22.6481 197.626 22.2086 197.626 21.6702C197.626 21.1319 197.18 20.6776 196.631 20.6776Z" fill="black"/>
<path d="M202.171 23.2347C201.094 23.2347 200.11 23.6217 199.399 24.3241C198.688 25.0265 198.297 25.9959 198.297 27.0579C198.297 29.2724 199.927 30.8811 202.171 30.8811C204.414 30.8811 206.059 29.2745 206.059 27.0579C206.059 25.9959 205.668 25.0244 204.955 24.3241C204.242 23.6217 203.254 23.2347 202.171 23.2347ZM202.171 29.2913C200.926 29.2913 199.986 28.3302 199.986 27.0579C199.986 25.7856 200.926 24.8246 202.171 24.8246C203.415 24.8246 204.383 25.7856 204.383 27.0579C204.383 28.3302 203.432 29.2913 202.171 29.2913Z" fill="black"/>
<path d="M210.864 23.2347C209.823 23.2347 208.847 23.649 208.366 24.4376V23.3883H206.866V30.7423H208.612V26.7951C208.612 25.527 209.276 24.7699 210.387 24.7699C211.146 24.7699 212.052 25.1022 212.052 26.6836V30.7423H213.798V26.4481C213.798 24.0801 212.283 23.2347 210.864 23.2347Z" fill="black"/>
<path d="M212.332 11.9166C211.293 11.9166 210.345 12.3078 209.665 13.0186C208.992 13.7231 208.62 14.6925 208.62 15.7524C208.62 17.9942 210.191 19.5609 212.439 19.5609C213.884 19.5609 215.251 18.7723 215.798 17.6009L214.479 16.9301H214.452L214.426 16.9785C214.267 17.3107 213.682 18.0825 212.454 18.0825C211.339 18.0825 210.49 17.3738 210.359 16.3455H216.039V16.2677C216.077 14.8671 215.695 13.7168 214.94 12.9429C214.286 12.272 213.383 11.9166 212.33 11.9166H212.332ZM210.361 14.9785C210.481 14.0385 211.295 13.3656 212.332 13.3656C213.369 13.3656 214.185 14.0385 214.264 14.9785H210.359H210.361Z" fill="black"/>
</svg>
