<?xml version="1.0" encoding="utf-8"?>
<!-- Generator: Adobe Illustrator 19.2.1, SVG Export Plug-In . SVG Version: 6.00 Build 0)  -->
<svg version="1.1" id="Capa_1" xmlns="http://www.w3.org/2000/svg" xmlns:xlink="http://www.w3.org/1999/xlink" x="0px" y="0px"
	 viewBox="0 0 16.9 16.9" style="enable-background:new 0 0 16.9 16.9;" xml:space="preserve">
<style type="text/css">
	.st0{fill:#707070;}
</style>
<g>
	<path class="st0" d="M8.5,13.9c-2.2,0-4.4,0-6.5,0c-1.1,0-1.9-0.8-1.9-1.9c0-2.6,0-5.2,0-7.7c0-1,0.8-1.8,1.8-1.8
		c3.5,0,6.9,0,10.4,0c0.8,0,1.6,0,2.5,0c1.3,0,2.1,0.8,2.1,2.1c0,2.5,0,5,0,7.4c0,1.2-0.8,1.9-2,1.9C12.8,13.9,10.6,13.9,8.5,13.9
		C8.5,13.9,8.5,13.9,8.5,13.9z M16.2,7.5c-0.1,0-0.2,0-0.2,0c-5,0-10,0-14.9,0c-0.3,0-0.3,0-0.3,0.3c0,1.3,0,2.6,0,3.9
		c0,0.1,0,0.3,0,0.4c0.1,0.5,0.4,0.9,0.9,1c0.2,0,0.4,0.1,0.6,0.1c4.2,0,8.5,0,12.7,0c0.8,0,1.3-0.5,1.3-1.3c0-1.4,0-2.8,0-4.1
		C16.2,7.7,16.2,7.6,16.2,7.5z M8.5,6.8c2.5,0,5,0,7.4,0c0.3,0,0.3,0,0.3-0.3c0-0.5,0-1,0-1.5c0-0.4,0-0.4-0.3-0.4
		c-1.1,0-2.2,0-3.2,0c-3.9,0-7.8,0-11.7,0c-0.2,0-0.3,0.1-0.3,0.3c0,0.5,0,1.1,0,1.6c0,0.3,0,0.3,0.3,0.3C3.5,6.8,6,6.8,8.5,6.8z
		 M0.8,3.9c5.1,0,10.2,0,15.3,0C16,3.4,15.5,3.1,15,3.1c-4.2,0-8.5,0-12.7,0c-0.1,0-0.2,0-0.4,0C1.4,3.1,0.9,3.5,0.8,3.9z"/>
	<path class="st0" d="M13.4,12.1c-0.2,0-0.4,0-0.6,0.1c-0.6,0-0.9-0.3-1.2-0.8c-0.3-0.5-0.2-1,0.2-1.5c0.4-0.4,0.8-0.6,1.4-0.4
		c0.2,0.1,0.4,0.1,0.5,0c0.8-0.2,1.6,0.2,1.7,1.1c0.2,0.8-0.4,1.5-1.2,1.6C13.9,12.2,13.7,12.1,13.4,12.1z M12.8,11.5
		c0.4,0,0.7-0.3,0.7-0.7c0-0.4-0.3-0.7-0.7-0.7c-0.4,0-0.7,0.3-0.7,0.7C12,11.1,12.4,11.5,12.8,11.5z M14,10.1
		c0.2,0.7,0.2,0.7,0,1.3c0.2,0.1,0.5,0,0.6-0.2c0.2-0.2,0.2-0.5,0-0.8C14.5,10.2,14.2,10.1,14,10.1z"/>
	<path class="st0" d="M3.9,10.5c0.6,0,1.2,0,1.8,0c0.1,0,0.2,0,0.3,0c0.1,0.1,0.2,0.2,0.3,0.3c0.1,0.1,0,0.3-0.2,0.3
		c-0.1,0-0.2,0-0.3,0c-1.2,0-2.5,0-3.7,0c-0.1,0-0.2,0-0.2,0c-0.2,0-0.3-0.2-0.3-0.3c0-0.2,0.1-0.3,0.3-0.3c0.3,0,0.6,0,0.9,0
		C3.1,10.5,3.5,10.5,3.9,10.5C3.9,10.5,3.9,10.5,3.9,10.5z"/>
</g>
</svg>
