<?xml version="1.0" encoding="utf-8"?>
<!-- Generator: Adobe Illustrator 19.2.1, SVG Export Plug-In . SVG Version: 6.00 Build 0)  -->
<svg version="1.1" id="Capa_1" xmlns="http://www.w3.org/2000/svg" xmlns:xlink="http://www.w3.org/1999/xlink" x="0px" y="0px"
	 viewBox="0 0 16.9 16.9" style="enable-background:new 0 0 16.9 16.9;" xml:space="preserve">
<style type="text/css">
	.st0{fill:#707070;}
</style>
<g>
	<path class="st0" d="M13.1,8.5c0,2.1,0,4.2,0,6.3c0,0.7-0.3,1.3-1,1.7c-0.3,0.2-0.6,0.2-0.9,0.2c-1.9,0-3.7,0-5.6,0
		c-1,0-1.9-0.8-1.9-1.9c0-4.2,0-8.4,0-12.6c0-1,0.8-1.9,1.8-1.9c1.9,0,3.8,0,5.7,0c1,0,1.8,0.9,1.8,1.9c0,1,0,2.1,0,3.1
		C13.1,6.4,13.1,7.4,13.1,8.5C13.1,8.5,13.1,8.5,13.1,8.5z M4.3,3.4c0,3.2,0,6.4,0,9.5c2.8,0,5.5,0,8.3,0c0-3.2,0-6.4,0-9.5
		C9.8,3.4,7.1,3.4,4.3,3.4z M8.5,13.5c-1.3,0-2.7,0-4,0c-0.1,0-0.2,0-0.2,0.2c0,0.4,0,0.7,0,1.1c0,0.7,0.5,1.3,1.3,1.4
		c0.3,0,0.6,0,0.9,0c1.6,0,3.1,0,4.7,0c0.9,0,1.5-0.6,1.5-1.5c0-0.3,0-0.6,0-1c0-0.2-0.1-0.2-0.2-0.2C11.1,13.5,9.8,13.5,8.5,13.5z
		 M12.6,2.9c0-0.2,0-0.4,0-0.7c0-0.8-0.6-1.4-1.4-1.4c-1.8,0-3.7,0-5.5,0c-0.6,0-1,0.3-1.3,0.8C4.2,2,4.3,2.4,4.3,2.9
		C7.1,2.9,9.8,2.9,12.6,2.9z"/>
	<path class="st0" d="M7.7,14.8C7.7,14.4,8,14,8.5,14c0.4,0,0.8,0.3,0.8,0.8c0,0.4-0.3,0.8-0.8,0.8C8,15.5,7.7,15.2,7.7,14.8z
		 M8.5,15c0.1,0,0.2-0.1,0.2-0.2c0-0.1-0.1-0.2-0.2-0.2c-0.1,0-0.3,0.1-0.2,0.2C8.2,14.9,8.3,15,8.5,15z"/>
	<path class="st0" d="M8.4,1.9c-0.2,0-0.5,0-0.7,0c-0.2,0-0.3-0.1-0.3-0.3c0-0.1,0.1-0.3,0.3-0.3c0.5,0,1,0,1.4,0
		c0.2,0,0.3,0.1,0.3,0.3c0,0.2-0.1,0.2-0.3,0.2C8.9,1.9,8.7,1.9,8.4,1.9z"/>
</g>
</svg>
