<?xml version="1.0" encoding="utf-8"?>
<!-- Generator: Adobe Illustrator 19.2.1, SVG Export Plug-In . SVG Version: 6.00 Build 0)  -->
<svg version="1.1" id="Capa_1" xmlns="http://www.w3.org/2000/svg" xmlns:xlink="http://www.w3.org/1999/xlink" x="0px" y="0px"
	 viewBox="0 0 16.9 16.9" style="enable-background:new 0 0 16.9 16.9;" xml:space="preserve">
<style type="text/css">
	.st0{fill:#707070;}
</style>
<g>
	<path class="st0" d="M11.9,15.1c-0.8,0-1.7,0-2.5,0c-0.5,0-1-0.2-1.2-0.7C8,14.1,8,13.9,8,13.7c0-1.2,0-2.3,0-3.5
		C8,9.7,8.2,9.3,8.7,9c0,0,0.1-0.1,0.1-0.2c0-0.3,0-0.7,0-1C8.8,6.5,10,5.2,11.3,5c1.3-0.2,2.6,0.4,3.2,1.5C14.9,7,15,7.5,15,8.1
		c0,0.2,0,0.5,0,0.7C15,8.9,15,9,15.1,9c0.4,0.2,0.7,0.6,0.7,1.1c0,1.2,0,2.4,0,3.6c0,0.8-0.6,1.3-1.4,1.3
		C13.6,15.1,12.7,15.1,11.9,15.1z M11.9,9.3c-0.8,0-1.7,0-2.5,0c-0.5,0-0.9,0.3-0.9,0.8c0,1.2,0,2.4,0,3.6c0,0.5,0.3,0.8,0.9,0.8
		c1.7,0,3.4,0,5.1,0c0.5,0,0.8-0.3,0.8-0.8c0-1.2,0-2.3,0-3.5c0-0.6-0.3-0.9-0.9-0.9C13.6,9.3,12.7,9.3,11.9,9.3z M13.5,8.8
		c0-0.2,0-0.5,0-0.7c0-0.6-0.2-1-0.7-1.3c-0.7-0.6-1.9-0.3-2.3,0.5c-0.3,0.5-0.2,1-0.2,1.6C11.4,8.8,12.4,8.8,13.5,8.8z M9.8,8.8
		c0-0.1,0-0.1,0-0.2c0-0.2,0-0.5,0-0.7C9.9,7,10.6,6.2,11.6,6c1-0.1,1.9,0.4,2.2,1.3C14,7.7,14,8.1,13.9,8.6c0,0.1,0,0.2,0,0.3
		c0.2,0,0.4,0,0.5,0c0-0.3,0-0.5,0-0.8c0-1.8-1.8-3.1-3.6-2.4C9.9,6,9.3,7,9.3,8.1c0,0.2,0,0.5,0,0.7C9.5,8.8,9.6,8.8,9.8,8.8z"/>
	<path class="st0" d="M8.5,1.8c2.3,0,4.6,0,6.9,0c0.8,0,1.4,0.6,1.4,1.4c0,2.7,0,5.4,0,8.1c0,0.3-0.1,0.4-0.2,0.4
		c-0.2,0-0.2-0.1-0.2-0.4c0-2.7,0-5.4,0-8.1c0-0.6-0.3-0.9-0.9-0.9c-4.1,0-8.2,0-12.3,0c-0.5,0-1,0-1.6,0C1,2.3,0.7,2.6,0.7,3.2
		c0,2.7,0,5.4,0,8.1c0,0.6,0.3,0.9,0.9,0.9c1.8,0,3.6,0,5.4,0c0,0,0.1,0,0.1,0c0.2,0,0.3,0.1,0.3,0.2c0,0.2-0.1,0.2-0.4,0.2
		c-1.8,0-3.7,0-5.5,0c-0.8,0-1.4-0.6-1.4-1.4c0-2.7,0-5.5,0-8.2c0-0.8,0.5-1.4,1.4-1.4C3.9,1.8,6.2,1.8,8.5,1.8
		C8.5,1.8,8.5,1.8,8.5,1.8z"/>
	<path class="st0" d="M3.5,6.7c-0.3,0-0.5,0-0.8,0C2.3,6.7,2,6.4,2,6c0-0.3,0-0.7,0-1c0-0.5,0.3-0.8,0.8-0.8c0.5,0,1,0,1.6,0
		c0.5,0,0.8,0.3,0.8,0.8c0,0.3,0,0.6,0,0.9c0,0.5-0.3,0.8-0.8,0.8C4,6.7,3.8,6.7,3.5,6.7C3.5,6.7,3.5,6.7,3.5,6.7z M4.6,5.7
		c-0.2,0-0.5,0.1-0.5-0.3c0-0.3,0.3-0.2,0.5-0.3c0-0.1,0-0.2,0-0.2c0-0.1-0.1-0.2-0.2-0.3c-0.2,0-0.4,0-0.6,0c0,0.5,0,1,0,1.6
		c0.2,0,0.4,0,0.5,0c0.1,0,0.2-0.1,0.2-0.2C4.6,5.9,4.6,5.8,4.6,5.7z M3.3,4.7c-0.1,0-0.3,0-0.4,0c0,0-0.1,0-0.1,0
		C2.6,4.7,2.5,4.8,2.5,5c0,0.1,0,0.2,0,0.2C2.7,5.2,3,5.1,3,5.4c0,0.3-0.3,0.2-0.5,0.3c0,0.1,0,0.2,0,0.3c0,0.1,0.1,0.2,0.2,0.2
		c0.2,0,0.4,0,0.6,0C3.3,5.7,3.3,5.2,3.3,4.7z"/>
	<path class="st0" d="M4.7,10.9c-0.8,0-1.5,0-2.3,0c0,0-0.1,0-0.1,0c-0.2,0-0.3-0.1-0.3-0.2c0-0.2,0.1-0.2,0.3-0.2
		c1.2,0,2.4,0,3.6,0c0.4,0,0.8,0,1.2,0c0.1,0,0.2,0,0.3,0.1c0.1,0.1,0.1,0.3-0.1,0.4c-0.1,0-0.1,0-0.2,0C6.3,10.9,5.5,10.9,4.7,10.9
		C4.7,10.9,4.7,10.9,4.7,10.9z"/>
	<path class="st0" d="M2.5,8.8c0,0.1,0,0.2,0,0.3c0,0.1-0.1,0.2-0.2,0.2C2.1,9.3,2,9.3,2,9.1c0-0.2,0-0.4,0-0.6
		c0-0.1,0.1-0.2,0.2-0.2c0.1,0,0.2,0.1,0.2,0.2C2.5,8.7,2.5,8.7,2.5,8.8C2.5,8.8,2.5,8.8,2.5,8.8z"/>
	<path class="st0" d="M4.1,8.8c0,0.1,0,0.2,0,0.3C4,9.2,4,9.3,3.8,9.3c-0.1,0-0.2-0.1-0.2-0.2c0-0.2,0-0.4,0-0.6
		c0-0.1,0.1-0.2,0.2-0.2C4,8.3,4,8.4,4,8.6C4.1,8.7,4.1,8.8,4.1,8.8C4.1,8.8,4.1,8.8,4.1,8.8z"/>
	<path class="st0" d="M3.3,8.8c0,0.1,0,0.2,0,0.3c0,0.1-0.1,0.2-0.2,0.2c-0.1,0-0.2-0.1-0.3-0.2c0-0.2,0-0.4,0-0.6
		c0-0.1,0.1-0.2,0.2-0.2c0.1,0,0.2,0.1,0.2,0.2C3.3,8.7,3.3,8.7,3.3,8.8C3.3,8.8,3.3,8.8,3.3,8.8z"/>
	<path class="st0" d="M4.8,8.8c0,0.1,0,0.2,0,0.3c0,0.1-0.1,0.2-0.2,0.2c-0.1,0-0.2-0.1-0.2-0.2c0-0.2,0-0.4,0-0.6
		c0-0.1,0.1-0.2,0.3-0.2c0.1,0,0.2,0.1,0.2,0.2C4.8,8.7,4.8,8.8,4.8,8.8C4.8,8.8,4.8,8.8,4.8,8.8z"/>
	<path class="st0" d="M6.2,8.8c0-0.1,0-0.2,0-0.3c0-0.1,0.1-0.2,0.2-0.2c0.1,0,0.2,0.1,0.2,0.2c0,0.2,0,0.4,0,0.6
		c0,0.1-0.1,0.2-0.2,0.2c-0.1,0-0.2-0.1-0.2-0.2C6.2,9,6.2,8.9,6.2,8.8z"/>
	<path class="st0" d="M7.4,8.8c0,0.1,0,0.2,0,0.3c0,0.1-0.1,0.2-0.2,0.2C7.1,9.3,7,9.3,7,9.2c0-0.2,0-0.4,0-0.6
		c0-0.1,0.1-0.2,0.2-0.2c0.1,0,0.2,0.1,0.2,0.2C7.4,8.6,7.4,8.7,7.4,8.8C7.4,8.8,7.4,8.8,7.4,8.8z"/>
	<path class="st0" d="M5.9,8.8c0,0.1,0,0.2,0,0.3c0,0.1-0.1,0.2-0.2,0.2c-0.1,0-0.2,0-0.2-0.2c0-0.2,0-0.4,0-0.6
		c0-0.1,0.1-0.2,0.2-0.2c0.1,0,0.2,0.1,0.2,0.2C5.9,8.6,5.9,8.7,5.9,8.8C5.9,8.8,5.9,8.8,5.9,8.8z"/>
	<path class="st0" d="M10.9,11.4c0-0.4,0.3-0.8,0.7-0.9c0.4-0.1,0.9,0,1.1,0.4c0.3,0.3,0.3,0.8,0,1.2c0,0.1-0.1,0.2-0.1,0.2
		c0,0.2,0,0.4,0,0.6c0,0.4-0.4,0.6-0.7,0.7c-0.4,0-0.7-0.2-0.8-0.6c0-0.2,0-0.4,0-0.6c0-0.1,0-0.2-0.1-0.3
		C10.9,11.8,10.9,11.6,10.9,11.4z M11.6,12.4C11.6,12.4,11.6,12.4,11.6,12.4c0,0.1,0,0.2,0,0.3c0,0.2,0.1,0.3,0.3,0.3
		c0.2,0,0.3-0.1,0.3-0.3c0-0.2,0-0.4,0-0.5c0-0.1,0-0.3,0.1-0.4c0.1-0.1,0.1-0.3,0.1-0.4c0-0.2-0.2-0.4-0.4-0.5
		c-0.2,0-0.4,0.1-0.6,0.3c-0.1,0.2-0.1,0.4,0.1,0.6c0.1,0.1,0.1,0.2,0.1,0.3C11.6,12.2,11.6,12.3,11.6,12.4z"/>
</g>
</svg>
