<?xml version="1.0" encoding="utf-8"?>
<!-- Generator: Adobe Illustrator 19.2.1, SVG Export Plug-In . SVG Version: 6.00 Build 0)  -->
<svg version="1.1" id="Capa_1" xmlns="http://www.w3.org/2000/svg" xmlns:xlink="http://www.w3.org/1999/xlink" x="0px" y="0px"
	 viewBox="0 0 16 16.3" style="enable-background:new 0 0 16 16.3;" xml:space="preserve">
<style type="text/css">
	.st0{fill:#707070;}
</style>
<g>
	<path class="st0" d="M11,16C9,16,7,16,5,16c-0.1,0-0.1,0-0.2,0c-1.3-0.2-2.3-1.3-2.3-2.6c0-2,0-4,0-6c0-0.5,0.4-0.8,0.8-0.8
		c0.1,0,0.2,0,0.3,0c0-0.1,0-0.2,0-0.2c0-0.6,0-1.2,0-1.8c0.1-1.8,1.2-3.4,2.9-4c0.3-0.1,0.6-0.2,1-0.2c0.3,0,0.6,0,0.8,0
		c0,0,0.1,0,0.1,0c0.5,0,1,0.2,1.5,0.5c1.4,0.7,2.2,1.9,2.3,3.4c0.1,0.7,0,1.4,0,2.1c0,0.1,0,0.2,0,0.2c0.2,0,0.4,0,0.5,0
		c0.3,0.1,0.5,0.3,0.6,0.6c0,2.1,0,4.2,0,6.4c0,0,0,0.1,0,0.1c-0.2,1.2-0.9,1.9-2,2.2C11.3,15.9,11.2,16,11,16z M12.6,7.4
		c-3.1,0-6.1,0-9.2,0c0,0.2,0,0.4,0,0.6c0.1,0,0.1,0,0.1,0c0.3,0,0.6,0,0.9,0c0.3,0,0.4,0.2,0.5,0.4c0,0.2-0.2,0.4-0.4,0.5
		C4.4,9,4.3,9,4.1,9C3.9,9,3.6,9,3.4,9c0,0.2,0,0.4,0,0.7c0.4,0,0.7,0,1.1,0c0.3,0,0.4,0.2,0.4,0.4c0,0.2-0.2,0.4-0.4,0.5
		c-0.1,0-0.2,0-0.3,0c-0.3,0-0.5,0-0.8,0c0,0.2,0,0.4,0,0.6c0.1,0,0.1,0,0.1,0c0.3,0,0.6,0,0.9,0c0.3,0,0.5,0.2,0.5,0.4
		c0,0.2-0.2,0.4-0.4,0.5c-0.1,0-0.2,0-0.3,0c-0.3,0-0.5,0-0.8,0c0,0.2,0,0.4,0,0.7c0.4,0,0.7,0,1.1,0c0.3,0,0.4,0.2,0.4,0.4
		c0,0.2-0.2,0.4-0.4,0.5c-0.2,0-0.3,0-0.5,0c-0.2,0-0.4,0-0.6,0c0.2,0.9,1,1.4,1.9,1.4c1.8,0,3.5,0,5.3,0c0.2,0,0.4,0,0.6-0.1
		c0.7-0.2,1.3-0.7,1.4-1.4c-0.1,0-0.1,0-0.2,0c-0.3,0-0.5,0-0.8,0c-0.2,0-0.4-0.1-0.4-0.3c-0.1-0.3,0.1-0.6,0.4-0.6
		c0.4,0,0.7,0,1.1,0c0-0.2,0-0.4,0-0.7c-0.3,0-0.6,0-0.9,0c-0.1,0-0.2,0-0.3,0c-0.2-0.1-0.3-0.3-0.3-0.5c0-0.2,0.2-0.4,0.4-0.4
		c0.4,0,0.7,0,1.1,0c0-0.2,0-0.4,0-0.7c-0.4,0-0.7,0-1,0c-0.3,0-0.4-0.1-0.5-0.3c-0.1-0.3,0.1-0.6,0.5-0.6c0.4,0,0.7,0,1.1,0
		c0-0.2,0-0.4,0-0.7c-0.3,0-0.6,0-1,0c-0.1,0-0.2,0-0.3,0c-0.2-0.1-0.3-0.3-0.3-0.5c0-0.2,0.2-0.4,0.4-0.4c0.4,0,0.7,0,1.1,0
		C12.6,7.8,12.6,7.6,12.6,7.4z M11.5,6.5c0-0.6,0-1.2,0-1.8c0-1.8-1.1-3.1-2.9-3.5c-2-0.4-4,1.2-4,3.2c0,0.7,0,1.3,0,2
		c0,0,0,0.1,0,0.1C6.9,6.5,9.1,6.5,11.5,6.5z"/>
	<path class="st0" d="M6.8,10.5c0-0.7,0.4-1.2,1-1.3C8.4,9.1,9,9.5,9.2,10c0.2,0.6,0,1.2-0.5,1.5c-0.1,0.1-0.2,0.2-0.2,0.3
		c0,0.2,0,0.4,0,0.6c0,0.3-0.2,0.4-0.4,0.4c-0.2,0-0.4-0.2-0.4-0.4c0-0.2,0-0.4,0-0.6c0-0.1,0-0.2-0.1-0.2C7,11.3,6.8,10.9,6.8,10.5
		z M8,10.8c0.2,0,0.3-0.1,0.3-0.3c0-0.2-0.1-0.3-0.3-0.3c-0.2,0-0.3,0.1-0.3,0.3C7.7,10.6,7.8,10.8,8,10.8z"/>
</g>
</svg>
