<svg width="996" height="152" viewBox="0 0 996 152" fill="none" xmlns="http://www.w3.org/2000/svg">
<path d="M43.6408 127.15C78.4671 133.08 165.668 131.878 167.661 75.9877C167.661 53.5414 140.087 33.8395 112.542 27.8198C92.8103 23.5128 75.933 21.8702 59.5465 22.5914C47.9077 23.1022 30.7399 24.9452 19.9725 28.551C10.7677 32.0867 3.95664 29.9232 1.30235 25.1254C-1.78264 19.5665 0.280698 11.3532 11.0882 7.41682C36.8799 -1.97837 113.924 -7.10666 159.999 21.4595C178.98 33.2285 195.987 51.6483 195.987 76.3282C195.987 103.212 178.359 121.702 159.598 133.11C119.193 157.68 57.4631 152.491 38.4023 148.695C27.3845 146.502 18.9809 141.443 18.9809 127.381V57.4677C18.9809 40.8909 43.6708 41.0312 43.6708 57.608L43.6308 127.13L43.6408 127.15Z" fill="#E30518"/>
<path d="M309.961 28.9816C282.367 28.9816 235.871 113.078 222.249 143.226C214.076 161.295 188.224 148.425 196.388 130.355C211.071 97.923 266.421 0.0447788 309.741 0.906171C353.051 0.0347626 408.38 97.923 423.064 130.355C431.237 148.425 405.396 161.305 397.222 143.226C383.56 113.078 337.546 28.9816 309.961 28.9816Z" fill="#E30518"/>
<path d="M503.044 123.865C530.638 123.865 577.123 39.7891 590.765 9.63038C598.929 -8.45887 624.79 4.41194 616.617 22.5012C601.933 54.9136 546.584 152.802 503.294 151.93C459.964 152.802 404.624 54.9136 389.951 22.5012C381.778 4.41194 407.619 -8.45887 415.793 9.63038C429.425 39.7791 475.469 123.865 503.054 123.865H503.044Z" fill="#E30518"/>
<path d="M663.133 16.0107V138.559C663.133 156.868 635.428 156.167 635.428 137.858V15.6701C635.418 -3.26046 663.133 -3.39067 663.133 16.0107Z" fill="#E30518"/>
<path d="M706.252 146.722V53.5312H726.906V93.8765C730.261 86.2742 736.972 80.4748 748.721 80.4748C761.882 80.4748 773.501 88.8483 773.501 112.697C773.501 141.694 755.041 151.49 734.007 151.49C724.843 151.49 715.297 149.817 706.262 146.722H706.252ZM736.331 134.222C745.626 134.222 751.686 130.095 751.686 115.401C751.686 104.313 747.559 100.066 739.817 100.066C732.845 100.066 728.198 105.095 728.198 112.186V133.45C731.032 133.961 733.747 134.222 736.331 134.222Z" fill="#435761"/>
<path d="M818.413 138.599C814.157 147.233 805.633 151.49 797.119 151.49C786.402 151.49 778.148 145.82 778.148 133.961C778.148 113.078 801.246 114.109 815.449 108.961C814.157 101.619 808.097 99.4255 800.094 99.4255C794.154 99.4255 787.704 100.327 781.253 101.749V83.059C788.866 81.5165 796.608 80.4849 803.71 80.4849C822.29 80.4849 836.493 87.3159 836.493 109.612V125.718C836.493 132.158 836.493 139.51 837.915 150.077H824.624C822.3 147.243 820.106 143.377 818.434 138.609L818.413 138.599ZM805.252 135.894C809.9 135.894 815.709 131.638 815.709 122.102V120.299C807.065 123.524 799.323 122.623 799.323 130.095C799.323 133.961 801.777 135.894 805.262 135.894H805.252Z" fill="#435761"/>
<path d="M882.046 100.067C873.402 100.067 870.177 105.605 870.177 111.535V150.077H848.231V109.993C848.231 103.422 848.101 93.6261 847.33 81.8972H861.142C863.336 84.6015 865.659 89.7599 867.212 95.0484C870.056 87.3159 876.887 80.4849 889.798 80.4849C904.252 80.4849 914.318 88.7382 914.318 106.777V150.087H892.382V111.164C892.382 103.943 888.897 100.077 882.056 100.077L882.046 100.067Z" fill="#435761"/>
<path d="M926.318 53.5312H948.263V150.067H926.318V53.5312ZM968.386 81.8871H992.004C987.487 92.8448 980.906 103.151 972.903 112.947L996 150.067H971.992L951.338 114.62C958.31 104.694 964.5 93.3556 968.376 81.8771L968.386 81.8871Z" fill="#435761"/>
</svg>
