<svg width="100" height="26" viewBox="0 0 100 26" fill="none" xmlns="http://www.w3.org/2000/svg" class="w-[100px] max-md:hidden">
                            <path d="M51.5505 20.1501H50.5769L50.3984 17.5929H50.3582C49.4061 19.599 47.5005 20.4442 45.456 20.4442C40.9891 20.4442 38.7656 16.9636 38.7656 13.1283C38.7656 9.29396 40.9891 5.8125 45.456 5.8125C48.4334 5.8125 50.8555 7.40551 51.372 10.4726H50.0221C49.8431 8.86099 48.1558 6.95308 45.456 6.95308C41.7037 6.95308 40.1168 10.0608 40.1168 13.1283C40.1168 16.1972 41.7037 19.304 45.456 19.304C48.5923 19.304 50.4189 17.1206 50.3582 14.1513H45.535V13.0107H51.5505V20.1501Z" fill="#E41E26"></path>
                            <!-- ... resto del SVG ... -->
                        </svg>